<svg id="visual" viewBox="0 0 900 600" width="900" height="600" xmlns="http://www.w3.org/2000/svg" xmlns:xlink="http://www.w3.org/1999/xlink" version="1.1"><rect x="0" y="0" width="900" height="600" fill="#16161a"></rect><defs><linearGradient id="grad1_0" x1="33.3%" y1="0%" x2="100%" y2="100%"><stop offset="20%" stop-color="#7e217b" stop-opacity="1"></stop><stop offset="80%" stop-color="#7e217b" stop-opacity="1"></stop></linearGradient></defs><defs><linearGradient id="grad1_1" x1="33.3%" y1="0%" x2="100%" y2="100%"><stop offset="20%" stop-color="#7e217b" stop-opacity="1"></stop><stop offset="80%" stop-color="#392652" stop-opacity="1"></stop></linearGradient></defs><defs><linearGradient id="grad1_2" x1="33.3%" y1="0%" x2="100%" y2="100%"><stop offset="20%" stop-color="#16161a" stop-opacity="1"></stop><stop offset="80%" stop-color="#392652" stop-opacity="1"></stop></linearGradient></defs><defs><linearGradient id="grad2_0" x1="0%" y1="0%" x2="66.7%" y2="100%"><stop offset="20%" stop-color="#7e217b" stop-opacity="1"></stop><stop offset="80%" stop-color="#7e217b" stop-opacity="1"></stop></linearGradient></defs><defs><linearGradient id="grad2_1" x1="0%" y1="0%" x2="66.7%" y2="100%"><stop offset="20%" stop-color="#392652" stop-opacity="1"></stop><stop offset="80%" stop-color="#7e217b" stop-opacity="1"></stop></linearGradient></defs><defs><linearGradient id="grad2_2" x1="0%" y1="0%" x2="66.7%" y2="100%"><stop offset="20%" stop-color="#392652" stop-opacity="1"></stop><stop offset="80%" stop-color="#16161a" stop-opacity="1"></stop></linearGradient></defs><g transform="translate(900, 0)"><path d="M0 378.6C-39.1 322.4 -78.2 266.1 -139.5 241.6C-200.8 217.1 -284.3 224.3 -327.9 189.3C-371.4 154.3 -375 77.2 -378.6 0L0 0Z" fill="#231f37"></path><path d="M0 252.4C-26.1 214.9 -52.1 177.4 -93 161.1C-133.9 144.7 -189.5 149.5 -218.6 126.2C-247.6 102.9 -250 51.4 -252.4 0L0 0Z" fill="#582869"></path><path d="M0 126.2C-13 107.5 -26.1 88.7 -46.5 80.5C-66.9 72.4 -94.8 74.8 -109.3 63.1C-123.8 51.4 -125 25.7 -126.2 0L0 0Z" fill="#7e217b"></path></g><g transform="translate(0, 600)"><path d="M0 -378.6C42.3 -327.9 84.6 -277.2 145.5 -252C206.4 -226.8 285.9 -227 327.9 -189.3C369.8 -151.5 374.2 -75.8 378.6 0L0 0Z" fill="#231f37"></path><path d="M0 -252.4C28.2 -218.6 56.4 -184.8 97 -168C137.6 -151.2 190.6 -151.4 218.6 -126.2C246.5 -101 249.5 -50.5 252.4 0L0 0Z" fill="#582869"></path><path d="M0 -126.2C14.1 -109.3 28.2 -92.4 48.5 -84C68.8 -75.6 95.3 -75.7 109.3 -63.1C123.3 -50.5 124.7 -25.3 126.2 0L0 0Z" fill="#7e217b"></path></g></svg>